<svg id="Layer_1" data-name="Layer 1" xmlns="http://www.w3.org/2000/svg" viewBox="0 0 199.54 199.54"><defs><style>.cls-1{fill:#fff;}.cls-2{fill:none;}</style></defs><title>favicon</title><circle class="cls-1" cx="99.77" cy="99.77" r="99.77"/><path class="cls-2" d="M114.1,175.8a1.61,1.61,0,0,0,.29.15,4.58,4.58,0,0,1,4.69-3.73l3.42,0V28a5.29,5.29,0,0,1-2.72-.68s0,0-.06,0c-.21,0-.42,0-.64,0a2.3,2.3,0,0,1-.26,0,3,3,0,0,1-.43,0,4.57,4.57,0,0,1-4.59-3.37c-.31.25-.39.68-.39,1.38,0,2,.43,4.13-.28,6.13-.17.63-1.64.3-1.11,1.45.6.24.38.5,0,.77a32.11,32.11,0,0,1-2,6.84c-1.13,3.26-2.06,6.56-2.93,9.88a30.07,30.07,0,0,0,0,6,52.65,52.65,0,0,0,4.11,12.26,43.5,43.5,0,0,1,3.25,11.86.22.22,0,0,1,0,.22c0,2.74.88,5.49-.21,8.19-1.16,3.22-2.76,6.11-5.9,7.84v.36c1.07.63,2.39.78,2.88,2.29s-.36,2.48-2.51,3.31v.67c3,1.08,6.21,5.6,6.28,9a32.05,32.05,0,0,1-3.31,15.6,56.72,56.72,0,0,0-4.55,10.41c-.21.71-.16,1.44-.43,2.12v4c.55,2.87.9,5.81,1.73,8.6,1,3.38,2.45,6.66,3.69,10a8.17,8.17,0,0,1,.27,1c.74.42.21,1.57,1.1,1.92l.56.39.34.09a29.53,29.53,0,0,1-.15,9C114.32,175.65,114.34,175.8,114.1,175.8Z" transform="translate(0 -0.57)"/><path class="cls-2" d="M90.56,134.21a5.07,5.07,0,0,1-1.13-2.66c-.46-.07-.52-.35-.39-.72-.34.08-.29-.22-.34-.41a.89.89,0,0,1-.37-.75,1,1,0,0,1-.39-1.11c-.52-.26-.52-.78-.59-1.26a2.1,2.1,0,0,1-.5-.75c-.12-.4-.25-.8-.37-1.2v.09l-.12-.08h.08c-1.38-3.74-2.62-7.56-2.49-11.56.14-4.5,2-8.3,6.22-10.5l-.37-.69c-2.59-2.28-2.64-3.11-.31-4.93l1-1a1.73,1.73,0,0,1-1.09-.77l-.35-.34a2.19,2.19,0,0,1-1.13-1.13c-.24-.18-.57-.31-.44-.68-.41.14-.35-.32-.51-.5-1.65-2.59-3-5.45-2.65-8.45a64.8,64.8,0,0,1,1.86-11.17C88,67.78,91.28,62.45,92,56.25v-7.1l-1.8-5.45c-1.06-3.1-2.06-6.2-3.06-9.31-.17-.57-.68-1.27.08-1.84.18-.94-1.06-.49-1.16-1.15-.73-.18-.45-.77-.45-1.18a49.53,49.53,0,0,1,0-5.17c.07-.89-.15-1.24-.66-1.39a5,5,0,0,1-7.23,0H77.5V171.76a5.24,5.24,0,0,1,1.58-.23l.24,0,.45,0a4.61,4.61,0,0,1,4.73,3.93,2.29,2.29,0,0,0,0-.78,58,58,0,0,1-.06-7.22c0-.57-.38-1.6.91-1.47l.67-.06.39-.64c-.23-1.35.66-2.38,1.09-3.52A81.92,81.92,0,0,0,91.05,151c.45-2,.92-4.11,1.38-6.11C93.3,141.09,92,137.64,90.56,134.21Z" transform="translate(0 -0.57)"/><path d="M114.39,176a1.61,1.61,0,0,1-.29-.15c.24,0,.22-.15.14-.31a29.53,29.53,0,0,0,.15-9l-.34-.09-.56-.39c-.89-.35-.36-1.5-1.1-1.92a8.17,8.17,0,0,0-.27-1c-1.24-3.34-2.68-6.62-3.69-10-.83-2.79-1.18-5.73-1.73-8.6v-4c.27-.68.22-1.41.43-2.12A56.72,56.72,0,0,1,111.68,128a32.05,32.05,0,0,0,3.31-15.6c-.07-3.4-3.31-7.92-6.28-9v-.67c2.15-.83,3-1.8,2.51-3.31s-1.81-1.66-2.88-2.29v-.36c3.14-1.73,4.74-4.62,5.9-7.84,1.09-2.7.26-5.45.21-8.19a.22.22,0,0,0,0-.22,43.5,43.5,0,0,0-3.25-11.86,52.65,52.65,0,0,1-4.11-12.26,30.07,30.07,0,0,1,0-6c.87-3.32,1.8-6.62,2.93-9.88a32.11,32.11,0,0,0,2-6.84c.38-.27.6-.53,0-.77-.53-1.15.94-.82,1.11-1.45.71-2,.26-4.09.28-6.13,0-.7.08-1.13.39-1.38,0-.09,0-.18-.08-.28H85l0,0c.51.15.73.5.66,1.39a49.53,49.53,0,0,0,0,5.17c0,.41-.28,1,.45,1.18.1.66,1.34.21,1.16,1.15-.76.57-.25,1.27-.08,1.84,1,3.11,2,6.21,3.06,9.31L92,49.15v7.1c-.75,6.2-4.08,11.53-5.85,17.39a64.8,64.8,0,0,0-1.86,11.17c-.36,3,1,5.86,2.65,8.45.16.18.1.64.51.5-.13.37.2.5.44.68a2.19,2.19,0,0,0,1.13,1.13l.35.34a1.73,1.73,0,0,0,1.09.77l-1,1c-2.33,1.82-2.28,2.65.31,4.93l.37.69c-4.27,2.2-6.08,6-6.22,10.5-.13,4,1.11,7.82,2.49,11.56h-.08l.12.08v-.09c.12.4.25.8.37,1.2a2.1,2.1,0,0,0,.5.75c.07.48.07,1,.59,1.26a1,1,0,0,0,.39,1.11.89.89,0,0,0,.37.75c0,.19,0,.49.34.41-.13.37-.07.65.39.72a5.07,5.07,0,0,0,1.13,2.66c1.39,3.43,2.74,6.88,1.87,10.69-.46,2-.93,4.08-1.38,6.11a81.92,81.92,0,0,1-3.51,10.76c-.43,1.14-1.32,2.17-1.09,3.52l-.39.64-.67.06c-1.29-.13-.9.9-.91,1.47a58,58,0,0,0,.06,7.22,2.29,2.29,0,0,1,0,.78,5.5,5.5,0,0,1,.09.91h29.73C114.34,176.23,114.36,176.09,114.39,176Z" transform="translate(0 -0.57)"/></svg>